# xmcd
#
# Track frame offsets:
#	150
#	20060
#	37370
#	57356
#	73266
#	88243
#	106486
#	120079
#	135678
#	152639
#	171970
#	188195
#
# Disc length: 2757 seconds
# Revision: 0
# Processed by: cddbd v1.5.2PL0 Copyright (c) Steve Scherf et al.
# Submitted via: dBpowerAMP V12.0
#
DISCID=ae0ac30c
DTITLE=Ashton Lane - Magic In the Air
DYEAR=2015
DGENRE=Pop
TTITLE0=One Kiss Later
TTITLE1=Magic In The Air
TTITLE2=Oceans Apart
TTITLE3=Chemistry
TTITLE4=Up My Street
TTITLE5=Fire Up Ahead
TTITLE6=I Will Fight You
TTITLE7=Sweet Lover
TTITLE8=This World
TTITLE9=Believe Me Now
TTITLE10=Sleepless
TTITLE11=Stay
EXTD=
EXTT0=
EXTT1=
EXTT2=
EXTT3=
EXTT4=
EXTT5=
EXTT6=
EXTT7=
EXTT8=
EXTT9=
EXTT10=
EXTT11=
PLAYORDER=
